<svg width="24" height="24" viewBox="0 0 24 24" fill="none" xmlns="http://www.w3.org/2000/svg">
<rect width="24" height="24" rx="12" fill="#8938E9"/>
<path fill-rule="evenodd" clip-rule="evenodd" d="M16.2334 5.33325C16.7541 5.33325 17.2714 5.64659 17.4501 6.20325L17.5007 6.36725L17.5534 6.55392L17.6067 6.76459L17.6581 6.99525L17.7067 7.24592L17.7294 7.37792L17.7701 7.65592C17.9234 8.84925 17.8747 10.4759 17.0221 12.1259L16.9161 12.3239C16.0214 13.9339 16.0861 15.5546 16.2881 16.6073L16.3374 16.8399L16.3627 16.9479L16.4141 17.1479L16.4654 17.3226C16.6481 17.9159 16.2534 18.6039 15.5807 18.6626L15.4874 18.6666H7.76672C7.24672 18.6666 6.72872 18.3533 6.55005 17.7966L6.50005 17.6326L6.44672 17.4459L6.39339 17.2353L6.34205 17.0046L6.29339 16.7539C6.27739 16.6673 6.26272 16.5777 6.24939 16.4853L6.21272 16.1986L6.18472 15.8959C6.10005 14.7599 6.22805 13.3259 6.97805 11.8739L7.08405 11.6759C7.97872 10.0666 7.91339 8.44525 7.71205 7.39325L7.66339 7.16059L7.63739 7.05259L7.58605 6.85259L7.53472 6.67792C7.35205 6.08459 7.74672 5.39659 8.41939 5.33792L8.51339 5.33325H16.2334ZM12.0001 11.9999H10.0001C9.82324 11.9999 9.65367 12.0702 9.52865 12.1952C9.40362 12.3202 9.33339 12.4898 9.33339 12.6666C9.33339 12.8434 9.40362 13.013 9.52865 13.138C9.65367 13.263 9.82324 13.3333 10.0001 13.3333H12.0001C12.1769 13.3333 12.3464 13.263 12.4715 13.138C12.5965 13.013 12.6667 12.8434 12.6667 12.6666C12.6667 12.4898 12.5965 12.3202 12.4715 12.1952C12.3464 12.0702 12.1769 11.9999 12.0001 11.9999ZM14.6667 9.33325H10.6667C10.4968 9.33344 10.3334 9.3985 10.2098 9.51515C10.0862 9.6318 10.0119 9.79122 10.0019 9.96085C9.99198 10.1305 10.0472 10.2975 10.1562 10.4278C10.2653 10.5581 10.42 10.6418 10.5887 10.6619L10.6667 10.6666H14.6667C14.8366 10.6664 15.0001 10.6013 15.1236 10.4847C15.2472 10.368 15.3215 10.2086 15.3315 10.039C15.3415 9.86936 15.2863 9.70233 15.1772 9.57203C15.0681 9.44173 14.9135 9.35799 14.7447 9.33792L14.6667 9.33325Z" fill="white"/>
</svg>
