<svg width="24" height="24" viewBox="0 0 24 24" fill="none" xmlns="http://www.w3.org/2000/svg">
<rect width="24" height="24" rx="12" fill="#8938E9"/>
<path fill-rule="evenodd" clip-rule="evenodd" d="M7.76 6H10V6.473C10.005 6.483 10.026 6.532 10.102 6.62C10.205 6.74 10.367 6.883 10.575 7.02C10.997 7.297 11.527 7.5 12 7.5C12.473 7.5 13.004 7.297 13.425 7.02C13.633 6.883 13.795 6.74 13.899 6.62C13.974 6.532 13.995 6.483 14 6.473V6H16.24L18.552 8.89L17.315 13.217L15.5 12.309V18H8.5V12.309L6.685 13.217L5.448 8.889L7.76 6Z" fill="white"/>
</svg>
