<svg width="24" height="24" viewBox="0 0 24 24" fill="none" xmlns="http://www.w3.org/2000/svg">
<rect width="24" height="24" rx="12" fill="#8938E9"/>
<path d="M7.60405 5.6001H7.59365C7.54536 5.60112 7.49766 5.61088 7.45285 5.6289C7.38805 5.65455 7.33109 5.69669 7.28759 5.75113C7.24409 5.80557 7.21557 5.87044 7.20485 5.9393C7.19205 6.0145 6.80005 8.4761 6.80005 9.6001C6.80005 10.3601 7.15365 11.0377 7.70405 11.4761C7.90405 11.6369 8.00005 11.8113 8.00005 11.9569V12.3569C8.00005 12.3713 7.99925 12.3857 7.99765 12.4001C7.97605 12.6081 7.87685 13.5433 7.78325 14.5049C7.69125 15.4529 7.60005 16.4649 7.60005 16.8001C7.60005 17.2244 7.76862 17.6314 8.06868 17.9315C8.36874 18.2315 8.7757 18.4001 9.20005 18.4001C9.6244 18.4001 10.0314 18.2315 10.3314 17.9315C10.6315 17.6314 10.8 17.2244 10.8 16.8001C10.8 16.4641 10.7088 15.4529 10.6168 14.5049C10.5485 13.8033 10.477 13.1019 10.4024 12.4009L10.4 12.3569V11.9569C10.4 11.8105 10.496 11.6369 10.696 11.4761C10.978 11.2514 11.2056 10.966 11.3621 10.6413C11.5186 10.3165 11.5999 9.96061 11.6 9.6001C11.6 8.4737 11.2056 6.0009 11.1952 5.9385C11.1835 5.86331 11.1505 5.79304 11.1002 5.73593C11.0499 5.67882 10.9844 5.63725 10.9112 5.6161C10.8777 5.60628 10.843 5.6009 10.808 5.6001H10.792H10.7928C10.6863 5.60094 10.5843 5.64388 10.5092 5.71955C10.4342 5.79523 10.392 5.8975 10.392 6.0041V9.2041C10.3932 9.2561 10.384 9.30781 10.3651 9.35628C10.3462 9.40475 10.318 9.44902 10.282 9.48657C10.246 9.52412 10.203 9.55422 10.1554 9.57514C10.1077 9.59606 10.0565 9.60739 10.0044 9.6085C9.95245 9.6096 9.90073 9.60045 9.85227 9.58157C9.8038 9.56269 9.75953 9.53444 9.72197 9.49845C9.68442 9.46246 9.65433 9.41942 9.63341 9.3718C9.61249 9.32418 9.60115 9.2729 9.60005 9.2209V6.0001C9.60005 5.89401 9.55791 5.79227 9.48289 5.71726C9.40788 5.64224 9.30614 5.6001 9.20005 5.6001C9.09396 5.6001 8.99222 5.64224 8.91721 5.71726C8.84219 5.79227 8.80005 5.89401 8.80005 6.0001V9.2001L8.80085 9.2257C8.79798 9.33072 8.75352 9.43031 8.67723 9.50255C8.60094 9.57479 8.49907 9.61376 8.39405 9.6109C8.28902 9.60803 8.18944 9.56357 8.1172 9.48728C8.04496 9.41099 8.00598 9.30912 8.00885 9.2041V6.0049C8.00885 5.89768 7.96631 5.79483 7.89057 5.71894C7.81483 5.64305 7.71127 5.60031 7.60405 5.6001ZM12.8 9.2001C12.8 8.24532 13.1793 7.32964 13.8545 6.65451C14.5296 5.97938 15.4453 5.6001 16.4 5.6001C16.5061 5.6001 16.6079 5.64224 16.6829 5.71726C16.7579 5.79227 16.8 5.89401 16.8 6.0001V11.5825L16.816 11.7617C16.8784 12.4805 16.9392 13.1994 16.9984 13.9185C17.0976 15.1241 17.2 16.4473 17.2 16.8001C17.2 17.2244 17.0315 17.6314 16.7314 17.9315C16.4314 18.2315 16.0244 18.4001 15.6 18.4001C15.1757 18.4001 14.7687 18.2315 14.4687 17.9315C14.1686 17.6314 14 17.2244 14 16.8001C14 16.4481 14.1024 15.1241 14.2016 13.9185C14.2512 13.3097 14.3016 12.7209 14.3392 12.2849L14.3632 12.0001H14C13.6818 12.0001 13.3766 11.8737 13.1515 11.6486C12.9265 11.4236 12.8 11.1184 12.8 10.8001V9.2001Z" fill="white"/>
</svg>
