<svg width="24" height="24" viewBox="0 0 24 24" fill="none" xmlns="http://www.w3.org/2000/svg">
<rect width="24" height="24" rx="12" fill="#8938E9"/>
<path d="M8.66663 18.6666C8.29996 18.6666 7.98618 18.5361 7.72529 18.2753C7.46441 18.0144 7.33374 17.7004 7.33329 17.3333C7.33285 16.9661 7.46352 16.6524 7.72529 16.3919C7.98707 16.1315 8.30085 16.0008 8.66663 15.9999C9.03241 15.999 9.34641 16.1297 9.60863 16.3919C9.87085 16.6541 10.0013 16.9679 9.99996 17.3333C9.99863 17.6986 9.86818 18.0126 9.60863 18.2753C9.34907 18.5379 9.03507 18.6684 8.66663 18.6666ZM15.3333 18.6666C14.9666 18.6666 14.6529 18.5361 14.392 18.2753C14.1311 18.0144 14.0004 17.7004 14 17.3333C13.9995 16.9661 14.1302 16.6524 14.392 16.3919C14.6537 16.1315 14.9675 16.0008 15.3333 15.9999C15.6991 15.999 16.0131 16.1297 16.2753 16.3919C16.5375 16.6541 16.668 16.9679 16.6666 17.3333C16.6653 17.6986 16.5349 18.0126 16.2753 18.2753C16.0157 18.5379 15.7017 18.6684 15.3333 18.6666ZM7.46663 6.66659H17.3C17.5555 6.66659 17.75 6.78059 17.8833 7.00859C18.0166 7.23659 18.0222 7.46703 17.9 7.69992L15.5333 11.9666C15.4111 12.1888 15.2473 12.361 15.042 12.4833C14.8366 12.6055 14.6115 12.6666 14.3666 12.6666H9.39996L8.66663 13.9999H16C16.1889 13.9999 16.3473 14.0639 16.4753 14.1919C16.6033 14.3199 16.6671 14.4781 16.6666 14.6666C16.6662 14.855 16.6022 15.0135 16.4746 15.1419C16.3471 15.2704 16.1889 15.3341 16 15.3333H8.66663C8.16663 15.3333 7.78885 15.1139 7.5333 14.6753C7.27774 14.2366 7.26663 13.8004 7.49996 13.3666L8.39996 11.7333L5.99996 6.66659H5.33329C5.14441 6.66659 4.98618 6.60259 4.85863 6.47459C4.73107 6.34659 4.66707 6.18836 4.66663 5.99992C4.66618 5.81147 4.73018 5.65325 4.85863 5.52525C4.98707 5.39725 5.14529 5.33325 5.33329 5.33325H6.41663C6.53885 5.33325 6.65552 5.36659 6.76663 5.43325C6.87774 5.49992 6.96107 5.59436 7.01663 5.71659L7.46663 6.66659Z" fill="white"/>
</svg>
