<svg width="24" height="24" viewBox="0 0 24 24" fill="none" xmlns="http://www.w3.org/2000/svg">
<rect width="24" height="24" rx="12" fill="#8938E9"/>
<path d="M12 15.4999C11.913 15.4999 11.8274 15.4772 11.7519 15.434L7.375 12.9324C7.33697 12.9105 7.29382 12.8989 7.24991 12.8989C7.20599 12.8989 7.16286 12.9105 7.12484 12.9325C7.08682 12.9545 7.05527 12.9861 7.03336 13.0242C7.01144 13.0622 6.99994 13.1054 7 13.1493V15.4999C6.99993 15.5892 7.02374 15.6768 7.06896 15.7537C7.11419 15.8307 7.17918 15.8941 7.25719 15.9374L11.7572 18.4374C11.8315 18.4787 11.915 18.5003 12 18.5003C12.085 18.5003 12.1685 18.4787 12.2428 18.4374L16.7428 15.9374C16.8208 15.8941 16.8858 15.8307 16.931 15.7537C16.9763 15.6768 17.0001 15.5892 17 15.4999V13.1493C17.0001 13.1054 16.9886 13.0622 16.9666 13.0242C16.9447 12.9861 16.9132 12.9545 16.8752 12.9325C16.8371 12.9105 16.794 12.8989 16.7501 12.8989C16.7062 12.8989 16.663 12.9105 16.625 12.9324L12.2481 15.434C12.1726 15.4772 12.087 15.4999 12 15.4999Z" fill="white"/>
<path d="M19.4975 9.9531V9.94966C19.4894 9.8704 19.4625 9.79423 19.419 9.72748C19.3755 9.66073 19.3167 9.60533 19.2475 9.56591L12.2475 5.56591C12.1719 5.52272 12.0864 5.5 11.9993 5.5C11.9123 5.5 11.8268 5.52272 11.7512 5.56591L4.75122 9.56591C4.67471 9.60965 4.61113 9.67283 4.5669 9.74906C4.52268 9.82529 4.49939 9.91185 4.49939 9.99997C4.49939 10.0881 4.52268 10.1747 4.5669 10.2509C4.61113 10.3271 4.67471 10.3903 4.75122 10.434L11.7512 14.434C11.8268 14.4772 11.9123 14.4999 11.9993 14.4999C12.0864 14.4999 12.1719 14.4772 12.2475 14.434L18.4062 10.915C18.4157 10.9095 18.4265 10.9066 18.4375 10.9066C18.4485 10.9066 18.4593 10.9095 18.4688 10.915C18.4783 10.9205 18.4862 10.9285 18.4917 10.938C18.4972 10.9475 18.5 10.9584 18.5 10.9693V15.4859C18.5 15.755 18.7068 15.9859 18.9759 15.9993C19.0435 16.0026 19.1111 15.9921 19.1745 15.9685C19.2379 15.9449 19.2959 15.9086 19.3449 15.8619C19.3939 15.8152 19.4329 15.7591 19.4596 15.6968C19.4862 15.6346 19.5 15.5677 19.5 15.5V9.99997C19.4999 9.98432 19.4991 9.96867 19.4975 9.9531Z" fill="white"/>
</svg>
