<svg width="24" height="24" viewBox="0 0 24 24" fill="none" xmlns="http://www.w3.org/2000/svg">
<rect width="24" height="24" rx="12" fill="#8938E9"/>
<path fill-rule="evenodd" clip-rule="evenodd" d="M12.4467 5.47795L18.1134 8.64461C18.2797 8.72766 18.4196 8.85544 18.5174 9.01359C18.6151 9.17175 18.6668 9.35402 18.6667 9.53995V10.4999C18.6667 10.9599 18.2934 11.3333 17.8334 11.3333H17.3334V16.6666H18C18.1769 16.6666 18.3464 16.7369 18.4714 16.8619C18.5965 16.9869 18.6667 17.1565 18.6667 17.3333C18.6667 17.5101 18.5965 17.6797 18.4714 17.8047C18.3464 17.9297 18.1769 17.9999 18 17.9999H6.00004C5.82323 17.9999 5.65366 17.9297 5.52864 17.8047C5.40361 17.6797 5.33337 17.5101 5.33337 17.3333C5.33337 17.1565 5.40361 16.9869 5.52864 16.8619C5.65366 16.7369 5.82323 16.6666 6.00004 16.6666H6.66671V11.3333H6.16671C5.70671 11.3333 5.33337 10.9599 5.33337 10.4999V9.53995C5.33337 9.19195 5.51337 8.87195 5.80404 8.69061L11.5527 5.47795C11.6916 5.40848 11.8447 5.37231 12 5.37231C12.1553 5.37231 12.3078 5.40848 12.4467 5.47795ZM15.3334 11.3333H8.66671V16.6666H10V12.6666H11.3334V16.6666H12.6667V12.6666H14V16.6666H15.3334V11.3333ZM12 7.99995C11.8232 7.99995 11.6537 8.07019 11.5286 8.19521C11.4036 8.32023 11.3334 8.4898 11.3334 8.66661C11.3334 8.84342 11.4036 9.01299 11.5286 9.13802C11.6537 9.26304 11.8232 9.33328 12 9.33328C12.1769 9.33328 12.3464 9.26304 12.4714 9.13802C12.5965 9.01299 12.6667 8.84342 12.6667 8.66661C12.6667 8.4898 12.5965 8.32023 12.4714 8.19521C12.3464 8.07019 12.1769 7.99995 12 7.99995Z" fill="white"/>
</svg>
