<svg width="24" height="24" viewBox="0 0 24 24" fill="none" xmlns="http://www.w3.org/2000/svg">
<rect width="24" height="24" rx="12" fill="#8938E9"/>
<path d="M5 17C5 17.1326 5.05268 17.2598 5.14645 17.3536C5.24021 17.4473 5.36739 17.5 5.5 17.5H18.5C18.6326 17.5 18.7598 17.4473 18.8536 17.3536C18.9473 17.2598 19 17.1326 19 17V10.9375H5V17ZM7.0625 12.6875C7.0625 12.6212 7.08884 12.5576 7.13572 12.5107C7.18261 12.4638 7.2462 12.4375 7.3125 12.4375H10.1875C10.2538 12.4375 10.3174 12.4638 10.3643 12.5107C10.4112 12.5576 10.4375 12.6212 10.4375 12.6875V14.6875C10.4375 14.7538 10.4112 14.8174 10.3643 14.8643C10.3174 14.9112 10.2538 14.9375 10.1875 14.9375H7.3125C7.2462 14.9375 7.18261 14.9112 7.13572 14.8643C7.08884 14.8174 7.0625 14.7538 7.0625 14.6875V12.6875ZM18.5 6.5H5.5C5.36739 6.5 5.24021 6.55268 5.14645 6.64645C5.05268 6.74021 5 6.86739 5 7V9.0625H19V7C19 6.86739 18.9473 6.74021 18.8536 6.64645C18.7598 6.55268 18.6326 6.5 18.5 6.5Z" fill="white"/>
</svg>
