<svg width="24" height="24" viewBox="0 0 24 24" fill="none" xmlns="http://www.w3.org/2000/svg">
<rect width="24" height="24" rx="12" fill="#8938E9"/>
<g clip-path="url(#clip0_887_991)">
<path d="M12 4C10.4178 4 8.87103 4.46919 7.55544 5.34824C6.23985 6.22729 5.21447 7.47672 4.60897 8.93853C4.00347 10.4003 3.84504 12.0089 4.15372 13.5607C4.4624 15.1126 5.22433 16.538 6.34315 17.6569C7.46197 18.7757 8.88743 19.5376 10.4393 19.8463C11.9911 20.155 13.5997 19.9965 15.0615 19.391C16.5233 18.7855 17.7727 17.7602 18.6518 16.4446C19.5308 15.129 20 13.5823 20 12C20 9.87827 19.1571 7.84344 17.6569 6.34315C16.1566 4.84285 14.1217 4 12 4ZM9.26 10.7133L11.5933 7.38C11.6413 7.31775 11.7029 7.26734 11.7734 7.23265C11.8439 7.19797 11.9214 7.17993 12 7.17993C12.0786 7.17993 12.1561 7.19797 12.2266 7.23265C12.2971 7.26734 12.3587 7.31775 12.4067 7.38L14.74 10.7133C14.8133 10.814 14.8458 10.9387 14.8309 11.0624C14.8161 11.186 14.755 11.2995 14.66 11.38L12.3267 13.38C12.2344 13.4606 12.1159 13.5051 11.9933 13.5051C11.8708 13.5051 11.7523 13.4606 11.66 13.38L9.32667 11.38C9.23368 11.2977 9.17517 11.1833 9.16281 11.0597C9.15045 10.9361 9.18516 10.8124 9.26 10.7133ZM14.7533 15.1467L12.44 17.1467C12.3183 17.2535 12.1619 17.3125 12 17.3125C11.8381 17.3125 11.6817 17.2535 11.56 17.1467L9.24667 15.1467C9.11318 15.03 9.03151 14.865 9.01963 14.6881C9.00776 14.5112 9.06664 14.3368 9.18334 14.2033C9.30003 14.0698 9.46498 13.9882 9.64189 13.9763C9.8188 13.9644 9.99318 14.0233 10.1267 14.14L12 15.78L13.8733 14.14C14.0068 14.0233 14.1812 13.9644 14.3581 13.9763C14.535 13.9882 14.7 14.0698 14.8167 14.2033C14.9334 14.3368 14.9923 14.5112 14.9804 14.6881C14.9685 14.865 14.8868 15.03 14.7533 15.1467Z" fill="white"/>
</g>
<defs>
<clipPath id="clip0_887_991">
<rect width="16" height="16" fill="white" transform="translate(4 4)"/>
</clipPath>
</defs>
</svg>
