<svg width="24" height="24" viewBox="0 0 24 24" fill="none" xmlns="http://www.w3.org/2000/svg">
<rect width="24" height="24" rx="12" fill="#8938E9"/>
<path d="M11.562 16.0208C11.6011 16.0536 11.6413 16.0861 11.6826 16.1181C10.8715 16.6575 9.91878 16.9447 8.94464 16.9434C8.17318 16.9434 7.41243 16.7629 6.72324 16.4162C6.03404 16.0696 5.43553 15.5665 4.97557 14.9471C4.51562 14.3278 4.20698 13.6094 4.07435 12.8494C3.94172 12.0894 3.98877 11.309 4.21175 10.5704C4.43473 9.8319 4.82744 9.1558 5.35848 8.5962C5.88951 8.0366 6.54414 7.60904 7.26999 7.34772C7.99584 7.08639 8.77277 6.99855 9.53864 7.09122C10.3045 7.1839 11.0381 7.45451 11.6806 7.88142C11.6406 7.91542 11.6006 7.94675 11.5706 7.98142C10.993 8.47962 10.5296 9.09649 10.212 9.78999C9.89434 10.4835 9.72994 11.2373 9.72998 12.0001C9.73032 12.7623 9.89402 13.5155 10.21 14.2091C10.5261 14.9026 10.9871 15.5204 11.562 16.0208ZM15.056 7.05609C14.0426 7.05609 13.102 7.36009 12.3193 7.88142C12.3593 7.91542 12.3993 7.94675 12.4293 7.98142C13.0069 8.47962 13.4703 9.09649 13.788 9.78999C14.1056 10.4835 14.27 11.2373 14.27 12.0001C14.2696 12.7623 14.1059 13.5155 13.7899 14.2091C13.4739 14.9026 13.0129 15.5204 12.438 16.0208C12.3989 16.0536 12.3586 16.0861 12.3173 16.1181C13.1285 16.6575 14.0812 16.9447 15.0553 16.9434C15.7046 16.9437 16.3476 16.816 16.9476 16.5677C17.5475 16.3194 18.0926 15.9553 18.5518 15.4962C19.011 15.0372 19.3753 14.4921 19.6237 13.8922C19.8722 13.2924 20.0001 12.6494 20 12.0001C19.9998 10.6889 19.4789 9.43149 18.5517 8.50435C17.6246 7.57721 16.3672 7.05626 15.056 7.05609ZM12 8.11609C11.936 8.16542 11.8738 8.21675 11.8133 8.27009C11.279 8.73356 10.8506 9.30651 10.5572 9.95008C10.2638 10.5936 10.1122 11.2928 10.1126 12.0001C10.1115 12.7484 10.2809 13.4872 10.608 14.1603C10.935 14.8333 11.411 15.4231 12 15.8848C12.064 15.835 12.1262 15.7834 12.1866 15.7301C12.7209 15.2666 13.1493 14.6937 13.4428 14.0501C13.7362 13.4065 13.8878 12.7074 13.8873 12.0001C13.8883 11.2519 13.7189 10.5133 13.3919 9.84029C13.0648 9.16732 12.5888 8.57767 12 8.11609Z" fill="white"/>
</svg>
