<svg width="24" height="24" viewBox="0 0 24 24" fill="none" xmlns="http://www.w3.org/2000/svg">
<rect width="24" height="24" rx="12" fill="#8938E9"/>
<path d="M10.6199 12.66C10.6866 12.66 12.2333 12.7267 13.1533 12.5H13.1599C14.2199 12.24 15.6933 11.4933 16.0733 9.05333C16.0733 9.05333 16.9199 6 12.7199 6H9.11327C8.78661 6 8.50661 6.24 8.45327 6.56L6.91994 16.2667C6.88661 16.4667 7.04661 16.6533 7.24661 16.6533H9.53327L10.0933 13.1067C10.1333 12.8533 10.3533 12.66 10.6199 12.66Z" fill="white"/>
<path d="M16.66 9.52661C16.12 12.0133 14.42 13.3266 11.7133 13.3266H10.7333L10.0466 17.6733C10.02 17.8466 10.1533 17.9999 10.3266 17.9999H11.5933C11.82 17.9999 12.02 17.8333 12.0533 17.6066C12.1066 17.3399 12.4 15.3933 12.46 15.0599C12.4933 14.8333 12.6933 14.6666 12.92 14.6666H13.2133C15.0933 14.6666 16.5666 13.8999 17 11.6933C17.1733 10.7999 17.08 10.0666 16.66 9.52661Z" fill="white"/>
</svg>
