<svg width="24" height="24" viewBox="0 0 24 24" fill="none" xmlns="http://www.w3.org/2000/svg">
<rect width="24" height="24" rx="12" fill="#8938E9"/>
<path d="M8.16663 5.33325C7.7688 5.33325 7.38727 5.49129 7.10597 5.77259C6.82466 6.0539 6.66663 6.43543 6.66663 6.83325V17.1666C6.66663 17.5644 6.82466 17.9459 7.10597 18.2272C7.38727 18.5085 7.7688 18.6666 8.16663 18.6666H13.1666C13.562 18.6666 13.9415 18.5105 14.2224 18.2322C14.5033 17.9539 14.6629 17.576 14.6666 17.1806V16.1673C14.6666 16.0346 14.6139 15.9075 14.5202 15.8137C14.4264 15.7199 14.2992 15.6673 14.1666 15.6673C13.8646 15.6673 13.674 15.5853 13.5426 15.4793C13.404 15.3679 13.2893 15.1959 13.202 14.9533C13.02 14.4499 13.0006 13.7866 13.0006 13.1666C13.0006 13.0399 12.9525 12.9179 12.866 12.8253L12.756 12.7073C12.7198 12.6673 12.6819 12.6288 12.6426 12.5919C12.5933 12.5453 12.4426 12.4019 11.854 11.8133C11.5413 11.5006 11.3686 11.2366 11.312 11.0346C11.2885 10.9647 11.2848 10.8897 11.3013 10.8179C11.326 10.7348 11.3733 10.6603 11.438 10.6026C11.4956 10.5383 11.5699 10.4912 11.6526 10.4666C11.7242 10.4502 11.799 10.4539 11.8686 10.4773C12.07 10.5339 12.334 10.7079 12.6466 11.0206C13.0066 11.3806 13.3486 11.7186 13.6546 12.0206C14.1613 12.5219 14.57 12.9273 14.8013 13.1739C14.8919 13.2701 15.017 13.3265 15.149 13.3307C15.2811 13.335 15.4095 13.2868 15.5062 13.1967C15.6028 13.1065 15.6599 12.9818 15.6648 12.8498C15.6698 12.7177 15.6222 12.589 15.5326 12.4919C15.2489 12.1951 14.9602 11.903 14.6666 11.6159V9.37325L16.5613 11.2679C16.842 11.5493 17.0006 11.9306 17.0006 12.3279V18.1666C17.0006 18.2992 17.0533 18.4264 17.1471 18.5201C17.2408 18.6139 17.368 18.6666 17.5006 18.6666C17.6332 18.6666 17.7604 18.6139 17.8542 18.5201C17.9479 18.4264 18.0006 18.2992 18.0006 18.1666V12.3286C18.0006 12.0002 17.9359 11.6751 17.8102 11.3717C17.6845 11.0683 17.5002 10.7927 17.268 10.5606L14.6666 7.95925V6.83259C14.6664 6.43488 14.5083 6.05352 14.2271 5.77236C13.9458 5.4912 13.5643 5.33325 13.1666 5.33325H8.16663ZM12.916 16.2586C13.135 16.4342 13.3921 16.5561 13.6666 16.6146V16.6666H13.1666C13.034 16.6666 12.9068 16.7193 12.8131 16.813C12.7193 16.9068 12.6666 17.034 12.6666 17.1666V17.6666H11.6666V17.1666C11.6667 16.884 11.7465 16.6071 11.897 16.3679C12.0475 16.1287 12.2625 15.9369 12.5173 15.8146C12.624 15.9773 12.7546 16.1293 12.916 16.2586ZM12.0013 13.3639C12.0026 13.5326 12.006 13.7146 12.016 13.9039C11.7055 14.1238 11.3461 14.2644 10.9688 14.3136C10.5916 14.3628 10.2081 14.319 9.85169 14.186C9.49528 14.053 9.17678 13.8349 8.92394 13.5507C8.6711 13.2665 8.49158 12.9248 8.40102 12.5553C8.31046 12.1858 8.31161 11.7998 8.40437 11.4309C8.49713 11.062 8.67868 10.7213 8.93321 10.4386C9.18775 10.1559 9.50754 9.93971 9.86474 9.80887C10.2219 9.67803 10.6057 9.63651 10.9826 9.68792C10.8937 9.74703 10.8097 9.81636 10.7306 9.89592C10.536 10.0906 10.3973 10.3159 10.3326 10.5693C10.268 10.8226 10.2833 11.0719 10.3493 11.3053C10.4753 11.7539 10.7926 12.1659 11.1473 12.5206C11.4184 12.795 11.6931 13.0659 11.9713 13.3333L11.974 13.3353L11.9986 13.3613L12.0013 13.3639ZM8.66663 6.33325H9.66663V6.83325C9.66663 7.23108 9.50859 7.61261 9.22729 7.89391C8.94598 8.17522 8.56445 8.33325 8.16663 8.33325H7.66663V7.33325H8.16663C8.29923 7.33325 8.42641 7.28057 8.52018 7.18681C8.61395 7.09304 8.66663 6.96586 8.66663 6.83325V6.33325ZM11.6666 6.33325H12.6666V6.83325C12.6666 7.10925 12.8906 7.33325 13.1666 7.33325H13.6666V8.33325H13.1666C12.7688 8.33325 12.3873 8.17522 12.106 7.89391C11.8247 7.61261 11.6666 7.23108 11.6666 6.83325V6.33325ZM9.66663 17.6666H8.66663V17.1666C8.66663 17.034 8.61395 16.9068 8.52018 16.813C8.42641 16.7193 8.29923 16.6666 8.16663 16.6666H7.66663V15.6666H8.16663C8.56445 15.6666 8.94598 15.8246 9.22729 16.1059C9.50859 16.3872 9.66663 16.7688 9.66663 17.1666V17.6666Z" fill="white"/>
</svg>
