<svg width="24" height="24" viewBox="0 0 24 24" fill="none" xmlns="http://www.w3.org/2000/svg">
<rect width="24" height="24" rx="12" fill="#8938E9"/>
<path d="M14.3733 6.78256C13.4008 7.02301 12.5538 7.61967 12 8.45456C11.4462 7.61967 10.5993 7.02301 9.62668 6.78256C9.85046 6.34575 10.1904 5.97918 10.6092 5.72321C11.028 5.46723 11.5092 5.33179 12 5.33179C12.4908 5.33179 12.9721 5.46723 13.3908 5.72321C13.8096 5.97918 14.1496 6.34575 14.3733 6.78256ZM6.70468 13.3612C6.84804 12.176 7.38474 11.073 8.22895 10.2288C9.07316 9.38462 10.1761 8.84792 11.3613 8.70456C11.0777 8.31567 10.7132 7.99281 10.293 7.75819C9.87269 7.52357 9.40658 7.38275 8.9267 7.34542C8.44682 7.30809 7.96454 7.37513 7.51304 7.54193C7.06153 7.70873 6.6515 7.97134 6.31115 8.31169C5.9708 8.65205 5.70819 9.06207 5.54139 9.51358C5.37459 9.96509 5.30755 10.4474 5.34488 10.9272C5.38221 11.4071 5.52303 11.8732 5.75765 12.2935C5.99227 12.7138 6.31512 13.0783 6.70402 13.3619M17.2947 13.3619C17.6836 13.0783 18.0064 12.7138 18.241 12.2935C18.4757 11.8732 18.6165 11.4071 18.6538 10.9272C18.6911 10.4474 18.6241 9.96509 18.4573 9.51358C18.2905 9.06207 18.0279 8.65205 17.6875 8.31169C17.3472 7.97134 16.9372 7.70873 16.4857 7.54193C16.0342 7.37513 15.5519 7.30809 15.072 7.34542C14.5921 7.38275 14.126 7.52357 13.7057 7.75819C13.2855 7.99281 12.921 8.31567 12.6373 8.70456C13.8228 8.84781 14.926 9.38455 15.7703 10.2289C16.6147 11.0733 17.1514 12.1764 17.2947 13.3619ZM12 18.6666C13.2377 18.6666 14.4247 18.1749 15.2998 17.2997C16.175 16.4246 16.6667 15.2376 16.6667 13.9999C16.6667 12.7622 16.175 11.5752 15.2998 10.7001C14.4247 9.82489 13.2377 9.33323 12 9.33323C10.7623 9.33323 9.57535 9.82489 8.70018 10.7001C7.82501 11.5752 7.33335 12.7622 7.33335 13.9999C7.33335 15.2376 7.82501 16.4246 8.70018 17.2997C9.57535 18.1749 10.7623 18.6666 12 18.6666ZM10.3333 12.8332C10.3333 12.7006 10.386 12.5734 10.4798 12.4797C10.5736 12.3859 10.7007 12.3332 10.8333 12.3332H13.6667C13.7683 12.3333 13.8674 12.3643 13.9509 12.4221C14.0344 12.4799 14.0984 12.5618 14.1342 12.6568C14.17 12.7519 14.1761 12.8556 14.1515 12.9542C14.1269 13.0527 14.0729 13.1414 13.9967 13.2086V13.2092L13.988 13.2166L13.9527 13.2499C13.7304 13.4675 13.5243 13.701 13.336 13.9486C12.9647 14.4359 12.544 15.1286 12.316 15.9646C12.2988 16.0279 12.2692 16.0873 12.229 16.1393C12.1888 16.1912 12.1388 16.2348 12.0818 16.2674C12.0248 16.3 11.9619 16.3211 11.8967 16.3294C11.8316 16.3377 11.7654 16.3331 11.702 16.3159C11.6386 16.2986 11.5793 16.2691 11.5273 16.2289C11.4753 16.1887 11.4318 16.1387 11.3992 16.0817C11.3666 16.0246 11.3455 15.9618 11.3372 15.8966C11.3288 15.8314 11.3334 15.7653 11.3507 15.7019C11.6227 14.7046 12.1187 13.8972 12.5393 13.3432L12.5467 13.3332H10.8333C10.7007 13.3332 10.5736 13.2805 10.4798 13.1868C10.386 13.093 10.3333 12.9658 10.3333 12.8332Z" fill="white"/>
</svg>
