<svg width="24" height="24" viewBox="0 0 24 24" fill="none" xmlns="http://www.w3.org/2000/svg">
<rect width="24" height="24" rx="12" fill="#8938E9"/>
<path fill-rule="evenodd" clip-rule="evenodd" d="M8.00002 5.6001C7.57568 5.6001 7.16871 5.76867 6.86865 6.06873C6.5686 6.36878 6.40002 6.77575 6.40002 7.2001V18.4001L9.20002 16.8001L12 18.4001L14.8 16.8001L17.6 18.4001V7.2001C17.6 6.77575 17.4315 6.36878 17.1314 6.06873C16.8313 5.76867 16.4244 5.6001 16 5.6001H8.00002ZM11.7656 8.5657C11.9114 8.41482 11.992 8.21273 11.9902 8.00298C11.9883 7.79322 11.9042 7.59257 11.7559 7.44424C11.6076 7.29592 11.4069 7.21178 11.1971 7.20996C10.9874 7.20814 10.7853 7.28877 10.6344 7.4345L8.23442 9.8345C8.08445 9.98452 8.0002 10.188 8.0002 10.4001C8.0002 10.6122 8.08445 10.8157 8.23442 10.9657L10.6344 13.3657C10.7853 13.5114 10.9874 13.5921 11.1971 13.5902C11.4069 13.5884 11.6076 13.5043 11.7559 13.356C11.9042 13.2076 11.9883 13.007 11.9902 12.7972C11.992 12.5875 11.9114 12.3854 11.7656 12.2345L10.7312 11.2001H12C12.6365 11.2001 13.247 11.453 13.6971 11.903C14.1472 12.3531 14.4 12.9636 14.4 13.6001V14.4001C14.4 14.6123 14.4843 14.8158 14.6343 14.9658C14.7844 15.1158 14.9879 15.2001 15.2 15.2001C15.4122 15.2001 15.6157 15.1158 15.7657 14.9658C15.9157 14.8158 16 14.6123 16 14.4001V13.6001C16 12.5392 15.5786 11.5218 14.8285 10.7717C14.0783 10.0215 13.0609 9.6001 12 9.6001H10.7312L11.7656 8.5657Z" fill="white"/>
</svg>
