<svg width="24" height="24" viewBox="0 0 24 24" fill="none" xmlns="http://www.w3.org/2000/svg">
<rect width="24" height="24" rx="12" fill="#8938E9"/>
<path fill-rule="evenodd" clip-rule="evenodd" d="M18.0667 9.33603C18.0289 9.33381 17.9887 9.33292 17.946 9.33336H16.2627C14.884 9.33336 13.7047 10.4187 13.7047 11.8334C13.7047 13.248 14.8847 14.3334 16.2627 14.3334H17.946C17.9887 14.3338 18.0292 14.3329 18.0674 14.3307C18.3507 14.3136 18.6182 14.1941 18.82 13.9944C19.0217 13.7947 19.144 13.5285 19.164 13.2454C19.1667 13.2054 19.1667 13.162 19.1667 13.122V10.5447C19.1667 10.5047 19.1667 10.4614 19.164 10.4214C19.144 10.1382 19.0217 9.87199 18.82 9.67231C18.6182 9.47263 18.3501 9.35311 18.0667 9.33603ZM16.1154 12.5C16.47 12.5 16.7574 12.2014 16.7574 11.8334C16.7574 11.4654 16.47 11.1667 16.1154 11.1667C15.76 11.1667 15.4727 11.4654 15.4727 11.8334C15.4727 12.2014 15.76 12.5 16.1154 12.5Z" fill="white"/>
<path fill-rule="evenodd" clip-rule="evenodd" d="M17.9454 15.3333C17.9684 15.3324 17.9914 15.3369 18.0123 15.3465C18.0333 15.3561 18.0517 15.3706 18.0661 15.3886C18.0804 15.4067 18.0903 15.4279 18.0949 15.4505C18.0996 15.4731 18.0988 15.4964 18.0927 15.5187C17.9594 15.9933 17.7467 16.3987 17.406 16.7387C16.9067 17.2387 16.274 17.4593 15.4927 17.5647C14.7327 17.6667 13.7627 17.6667 12.5374 17.6667H11.1294C9.90404 17.6667 8.93337 17.6667 8.17404 17.5647C7.39271 17.4593 6.76004 17.238 6.26071 16.7393C5.76204 16.24 5.54071 15.6073 5.43537 14.826C5.33337 14.066 5.33337 13.096 5.33337 11.8707V11.796C5.33337 10.5707 5.33337 9.6 5.43537 8.84C5.54071 8.05867 5.76204 7.426 6.26071 6.92667C6.76004 6.428 7.39271 6.20667 8.17404 6.10133C8.93404 6 9.90404 6 11.1294 6H12.5374C13.7627 6 14.7334 6 15.4927 6.102C16.274 6.20733 16.9067 6.42867 17.406 6.92733C17.7467 7.26867 17.9594 7.67333 18.0927 8.148C18.0988 8.17025 18.0996 8.19362 18.0949 8.21621C18.0903 8.23881 18.0804 8.26 18.0661 8.27805C18.0517 8.29611 18.0333 8.31053 18.0123 8.32013C17.9914 8.32974 17.9684 8.33426 17.9454 8.33333H16.2627C14.3714 8.33333 12.7047 9.82667 12.7047 11.8333C12.7047 13.84 14.3714 15.3333 16.2627 15.3333H17.9454ZM7.83337 8.66667C7.70077 8.66667 7.57359 8.71935 7.47982 8.81311C7.38605 8.90688 7.33337 9.03406 7.33337 9.16667C7.33337 9.29927 7.38605 9.42645 7.47982 9.52022C7.57359 9.61399 7.70077 9.66667 7.83337 9.66667H10.5C10.6326 9.66667 10.7598 9.61399 10.8536 9.52022C10.9474 9.42645 11 9.29927 11 9.16667C11 9.03406 10.9474 8.90688 10.8536 8.81311C10.7598 8.71935 10.6326 8.66667 10.5 8.66667H7.83337Z" fill="white"/>
</svg>
