<svg width="24" height="24" viewBox="0 0 24 24" fill="none" xmlns="http://www.w3.org/2000/svg">
<rect width="24" height="24" rx="12" fill="#8938E9"/>
<path d="M11.4933 11.1956C13.079 11.1956 14.3644 9.91015 14.3644 8.32448C14.3644 6.73881 13.079 5.45337 11.4933 5.45337C9.90763 5.45337 8.62219 6.73881 8.62219 8.32448C8.62219 9.91015 9.90763 11.1956 11.4933 11.1956Z" fill="white"/>
<path d="M13.3334 16.4443H16.4445V17.0666H13.3334V16.4443Z" fill="white"/>
<path d="M10.6667 17.3334V18.6668C10.6667 18.7846 10.7135 18.8977 10.7968 18.981C10.8802 19.0644 10.9932 19.1112 11.1111 19.1112H18.6667C18.7845 19.1112 18.8976 19.0644 18.9809 18.981C19.0643 18.8977 19.1111 18.7846 19.1111 18.6668V14.2223C19.1111 14.1045 19.0643 13.9914 18.9809 13.9081C18.8976 13.8247 18.7845 13.7779 18.6667 13.7779H15.5555V13.1245C15.5555 13.0067 15.5087 12.8936 15.4254 12.8103C15.342 12.7269 15.229 12.6801 15.1111 12.6801C14.9932 12.6801 14.8802 12.7269 14.7968 12.8103C14.7135 12.8936 14.6667 13.0067 14.6667 13.1245V13.7779H13.7778V12.1868C13.0225 12.0632 12.2586 12.0008 11.4933 12.0001C9.80568 11.9929 8.13694 12.3555 6.60443 13.0623C6.3522 13.1814 6.13941 13.3702 5.99131 13.6066C5.84321 13.8429 5.76601 14.1168 5.76888 14.3957V17.3334H10.6667ZM18.2222 18.2223H11.5555V14.6668H14.6667V14.8534C14.6667 14.9713 14.7135 15.0844 14.7968 15.1677C14.8802 15.2511 14.9932 15.2979 15.1111 15.2979C15.229 15.2979 15.342 15.2511 15.4254 15.1677C15.5087 15.0844 15.5555 14.9713 15.5555 14.8534V14.6668H18.2222V18.2223Z" fill="white"/>
</svg>
